<svg width="40" height="40" viewBox="0 0 40 40" fill="none" xmlns="http://www.w3.org/2000/svg">
<circle cx="20" cy="20" r="20" fill="white"/>
<path d="M24.2857 18.9286H21.0714V15.7143C21.0714 15.3199 20.7516 15 20.3571 15H19.6429C19.2484 15 18.9286 15.3199 18.9286 15.7143V18.9286H15.7143C15.3199 18.9286 15 19.2484 15 19.6429V20.3571C15 20.7516 15.3199 21.0714 15.7143 21.0714H18.9286V24.2857C18.9286 24.6801 19.2484 25 19.6429 25H20.3571C20.7516 25 21.0714 24.6801 21.0714 24.2857V21.0714H24.2857C24.6801 21.0714 25 20.7516 25 20.3571V19.6429C25 19.2484 24.6801 18.9286 24.2857 18.9286Z" fill="#B84257"/>
</svg>
