<svg width="167" height="150" viewBox="0 0 167 150" fill="none" xmlns="http://www.w3.org/2000/svg">
<path d="M164.949 56.7767H164.89L131.256 71.1472L85.2374 90.8091C85.0576 90.8848 84.8647 90.9243 84.6696 90.9253C84.4745 90.9263 84.2811 90.8888 84.1006 90.815L36.6228 71.1061L2.16218 56.8002L2.10953 56.7767H2.05088C1.50714 56.7773 0.985836 56.9937 0.601353 57.3784C0.216869 57.7631 0.000603324 58.2848 0 58.8288V147.948C0.000604098 148.492 0.216869 149.014 0.601353 149.398C0.985836 149.783 1.50714 149.999 2.05088 150H164.949C165.493 149.999 166.014 149.783 166.399 149.398C166.783 149.014 166.999 148.492 167 147.948V58.8288C166.999 58.2848 166.783 57.7631 166.399 57.3784C166.014 56.9937 165.493 56.7773 164.949 56.7767Z" fill="white"/>
<path d="M165.535 57.363C165.475 57.3631 165.417 57.3447 165.368 57.3105L84.3408 0.847829C84.0942 0.676802 83.8012 0.585403 83.5012 0.585915C83.2011 0.586427 82.9084 0.678824 82.6624 0.850692L2.21919 57.3099C2.18768 57.332 2.15213 57.3477 2.11457 57.3561C2.077 57.3645 2.03816 57.3653 2.00025 57.3587C1.96235 57.352 1.92613 57.338 1.89366 57.3173C1.86119 57.2966 1.8331 57.2698 1.81101 57.2383C1.78891 57.2067 1.77323 57.1712 1.76487 57.1336C1.75651 57.096 1.75563 57.0571 1.76229 57.0192C1.76894 56.9813 1.78299 56.945 1.80364 56.9125C1.82429 56.8801 1.85114 56.8519 1.88264 56.8298L82.326 0.370593C82.6704 0.130016 83.0802 0.000693494 83.5002 2.78133e-06C83.9203 -0.000687931 84.3305 0.127285 84.6757 0.366728L165.703 56.8293C165.754 56.8649 165.792 56.9161 165.812 56.9751C165.833 57.0342 165.833 57.0982 165.815 57.1577C165.796 57.2173 165.759 57.2693 165.708 57.3062C165.658 57.3432 165.597 57.3631 165.535 57.363L165.535 57.363Z" fill="#3F3D56"/>
<path d="M6.81601 59.3644L83.5806 2.43872L160.928 63.415L87.5359 106.948L47.6903 97.8607L6.81601 59.3644Z" fill="#EAEDF2"/>
<path d="M51.0538 133.837H13.1301C12.8972 133.838 12.6666 133.792 12.4514 133.703C12.2361 133.614 12.0406 133.483 11.8758 133.319C11.711 133.154 11.5803 132.959 11.4911 132.743C11.4019 132.528 11.356 132.297 11.356 132.064C11.356 131.831 11.4019 131.601 11.4911 131.385C11.5803 131.17 11.711 130.975 11.8758 130.81C12.0406 130.645 12.2361 130.515 12.4514 130.426C12.6666 130.337 12.8972 130.291 13.1301 130.292H51.0538C51.2867 130.291 51.5173 130.337 51.7326 130.426C51.9478 130.515 52.1434 130.645 52.3081 130.81C52.4729 130.975 52.6036 131.17 52.6928 131.385C52.782 131.601 52.8279 131.831 52.8279 132.064C52.8279 132.297 52.782 132.528 52.6928 132.743C52.6036 132.959 52.4729 133.154 52.3081 133.319C52.1434 133.483 51.9478 133.614 51.7326 133.703C51.5173 133.792 51.2867 133.838 51.0538 133.837Z" fill="#B84257"/>
<path d="M26.7363 126.215H13.1301C12.8972 126.216 12.6666 126.17 12.4514 126.081C12.2361 125.992 12.0406 125.862 11.8758 125.697C11.711 125.532 11.5803 125.337 11.4911 125.121C11.4019 124.906 11.356 124.675 11.356 124.442C11.356 124.209 11.4019 123.979 11.4911 123.764C11.5803 123.548 11.711 123.353 11.8758 123.188C12.0406 123.023 12.2361 122.893 12.4514 122.804C12.6666 122.715 12.8972 122.669 13.1301 122.67H26.7363C26.9692 122.669 27.1998 122.715 27.415 122.804C27.6302 122.893 27.8258 123.023 27.9906 123.188C28.1554 123.353 28.2861 123.548 28.3753 123.764C28.4644 123.979 28.5103 124.209 28.5103 124.442C28.5103 124.675 28.4644 124.906 28.3753 125.121C28.2861 125.337 28.1554 125.532 27.9906 125.697C27.8258 125.862 27.6302 125.992 27.415 126.081C27.1998 126.17 26.9692 126.216 26.7363 126.215Z" fill="#B84257"/>
<path d="M84.6602 91.0714C84.372 91.0717 84.0864 91.0157 83.8196 90.9066L36.4763 71.2509V9.7253C36.477 9.18125 36.6932 8.65966 37.0777 8.27496C37.4622 7.89026 37.9835 7.67385 38.5272 7.67322H129.352C129.896 7.67385 130.417 7.89026 130.801 8.27496C131.186 8.65966 131.402 9.18125 131.403 9.7253V71.2938L131.314 71.3319L85.5263 90.897C85.2521 91.0123 84.9576 91.0716 84.6602 91.0714Z" fill="white"/>
<path d="M84.6602 91.2178C84.3529 91.2181 84.0484 91.1585 83.7638 91.0423L36.3299 71.3488V9.72527C36.3305 9.14235 36.5623 8.5835 36.9742 8.17131C37.3861 7.75913 37.9447 7.52727 38.5272 7.52661H129.352C129.934 7.52727 130.493 7.75913 130.905 8.17131C131.317 8.5835 131.549 9.14235 131.549 9.72527V71.3906L85.5838 91.0317C85.2915 91.1548 84.9774 91.218 84.6602 91.2178ZM36.9158 70.9572L83.9873 90.5002C84.4263 90.6784 84.918 90.6755 85.3549 90.492L130.963 71.0035V9.72527C130.963 9.29781 130.793 8.88799 130.491 8.58573C130.189 8.28346 129.779 8.11343 129.352 8.11292H38.5272C38.1 8.11343 37.6905 8.28346 37.3884 8.58573C37.0863 8.88799 36.9163 9.29781 36.9158 9.72527V70.9572Z" fill="#3F3D56"/>
<path d="M164.949 56.7767H164.89L131.256 71.1472L85.2374 90.8091C85.0576 90.8848 84.8647 90.9243 84.6696 90.9253C84.4745 90.9263 84.2811 90.8888 84.1006 90.815L36.6228 71.1061L2.16218 56.8002L2.10953 56.7767H2.05088C1.50714 56.7773 0.985836 56.9937 0.601353 57.3784C0.216869 57.7631 0.000603324 58.2848 0 58.8288V147.948C0.000604098 148.492 0.216869 149.014 0.601353 149.398C0.985836 149.783 1.50714 149.999 2.05088 150H164.949C165.493 149.999 166.014 149.783 166.399 149.398C166.783 149.014 166.999 148.492 167 147.948V58.8288C166.999 58.2848 166.783 57.7631 166.399 57.3784C166.014 56.9937 165.493 56.7773 164.949 56.7767ZM166.414 147.948C166.414 148.337 166.26 148.709 165.985 148.984C165.71 149.259 165.338 149.414 164.949 149.414H2.05088C1.66241 149.414 1.28989 149.259 1.0152 148.984C0.74051 148.709 0.58612 148.337 0.585965 147.948V58.8288C0.586496 58.4498 0.733441 58.0856 0.996076 57.8124C1.25871 57.5393 1.61671 57.3782 1.99523 57.363L36.6228 71.7394L83.8751 91.3573C84.3866 91.5655 84.9597 91.5624 85.4689 91.3485L131.256 71.7833L165.008 57.363C165.386 57.3794 165.743 57.5408 166.005 57.8138C166.267 58.0868 166.413 58.4504 166.414 58.8288V147.948Z" fill="#3F3D56"/>
<path d="M77.2898 30.6717H45.0617C44.4401 30.6717 43.8439 30.4246 43.4043 29.9848C42.9648 29.545 42.7178 28.9484 42.7178 28.3264C42.7178 27.7044 42.9648 27.1079 43.4043 26.6681C43.8439 26.2283 44.4401 25.9812 45.0617 25.9812H77.2898C77.9114 25.9812 78.5076 26.2283 78.9471 26.6681C79.3867 27.1079 79.6336 27.7044 79.6336 28.3264C79.6336 28.9484 79.3867 29.545 78.9471 29.9848C78.5076 30.4246 77.9114 30.6717 77.2898 30.6717Z" fill="#B84257"/>
<path d="M60.5898 20.7044H45.0617C44.4401 20.7044 43.8439 20.4573 43.4043 20.0175C42.9648 19.5777 42.7178 18.9812 42.7178 18.3592C42.7178 17.7372 42.9648 17.1406 43.4043 16.7008C43.8439 16.261 44.4401 16.0139 45.0617 16.0139H60.5898C61.2114 16.0139 61.8076 16.261 62.2471 16.7008C62.6867 17.1406 62.9336 17.7372 62.9336 18.3592C62.9336 18.9812 62.6867 19.5777 62.2471 20.0175C61.8076 20.4573 61.2114 20.7044 60.5898 20.7044Z" fill="#B84257"/>
<path d="M108.044 54.1242H58.8226C58.201 54.1242 57.6048 53.8771 57.1653 53.4373C56.7257 52.9975 56.4788 52.401 56.4788 51.779C56.4788 51.157 56.7257 50.5604 57.1653 50.1206C57.6048 49.6808 58.201 49.4337 58.8226 49.4337H108.044C108.665 49.4337 109.261 49.6808 109.701 50.1206C110.141 50.5604 110.388 51.157 110.388 51.779C110.388 52.401 110.141 52.9975 109.701 53.4373C109.261 53.8771 108.665 54.1242 108.044 54.1242Z" fill="#EAEDF2"/>
<path d="M108.044 64.9708H58.8226C58.201 64.9708 57.6048 64.7237 57.1653 64.2838C56.7257 63.844 56.4788 63.2475 56.4788 62.6255C56.4788 62.0035 56.7257 61.407 57.1653 60.9672C57.6048 60.5274 58.201 60.2803 58.8226 60.2803H108.044C108.665 60.2803 109.261 60.5274 109.701 60.9672C110.141 61.407 110.388 62.0035 110.388 62.6255C110.388 63.2475 110.141 63.844 109.701 64.2838C109.261 64.7237 108.665 64.9708 108.044 64.9708Z" fill="#EAEDF2"/>
</svg>
