<?xml version="1.0" standalone="no"?>
<!DOCTYPE svg PUBLIC "-//W3C//DTD SVG 1.0//EN" "http://www.w3.org/TR/2001/REC-SVG-20010904/DTD/svg10.dtd">
<svg xmlns="http://www.w3.org/2000/svg" xmlns:xlink="http://www.w3.org/1999/xlink" id="body_1" width="30" height="30">

<defs>
        <clipPath  id="1">

            <path clip-rule="evenodd" transform="matrix(1.321429 0 0 1.321429 0 0)"  d="M7.46875 9.333334L29.86458 9.333334L29.86458 28L7.46875 28L7.46875 9.333334z" />        </clipPath>
</defs>

<g transform="matrix(0.8108108 0 0 0.8108108 0 0)">
	<g transform="matrix(1.321429 0 0 1.321429 0 0)">
	</g>
    <path transform="matrix(1.321429 0 0 1.321429 0 0)"  d="M28 14C 28 21.73047 21.73047 28 14 28C 6.269531 28 0 21.73047 0 14C 0 6.269531 6.269531 0 14 0C 21.73047 0 28 6.269531 28 14z" stroke="none" fill="#FFFFFF" fill-rule="nonzero" />
	<g transform="matrix(1.321429 0 0 1.321429 0 0)">
	</g>
    <path transform="matrix(1.321429 0 0 1.321429 0 0)"  d="M16.25 20.58984L10.71875 20.58984C 9.3125 20.58984 8.167969 19.44531 8.167969 18.04297C 8.167969 17.77344 8.382812 17.55859 8.652344 17.55859C 8.917969 17.55859 9.132812 17.77344 9.132812 18.04297C 9.132812 18.91406 9.84375 19.625 10.71875 19.625L10.71875 19.625L16.25 19.625C 16.51563 19.625 16.73438 19.83984 16.73438 20.10938C 16.73438 20.375 16.51563 20.58984 16.25 20.58984z" stroke="none" fill="#2D527C" fill-rule="nonzero" />
	<g transform="matrix(1.321429 0 0 1.321429 0 0)">
	</g>
    <path transform="matrix(1.321429 0 0 1.321429 0 0)"  d="M10.01172 15.79688C 10.01172 14.10156 11.38672 12.72266 13.08203 12.72266C 13.5 12.72266 13.89844 12.80859 14.26172 12.96094C 14.76563 12.04297 15.67188 11.37891 16.74219 11.21094C 16.75 11.11719 16.75781 11.02734 16.75781 10.93359C 16.75781 9.253906 15.39453 7.890625 13.71484 7.890625C 12.56641 7.890625 11.5625 8.53125 11.04688 9.476562C 10.72656 9.34375 10.375 9.269531 10.00391 9.269531C 8.503906 9.269531 7.285156 10.48438 7.285156 11.98438C 7.285156 12.07422 7.292969 12.16406 7.300781 12.25C 6.589844 12.5 6.082031 13.17578 6.082031 13.97266C 6.082031 14.98047 6.902344 15.79688 7.910156 15.79688L7.910156 15.79688L10.01172 15.79688z" stroke="none" fill="#CEE8FA" fill-rule="nonzero" />
	<g clip-path="url(#1)" >
		<g transform="matrix(1.321429 0 0 1.321429 0 0)">
		</g>
        <path transform="matrix(1.321429 0 0 1.321429 0 0)"  d="M21.02344 15.77734C 21.14063 15.39844 21.20313 15.00781 21.20313 14.60547C 21.20313 12.44141 19.44531 10.68359 17.28125 10.68359C 17.26563 10.68359 17.24609 10.68359 17.23047 10.68359C 17.10156 8.855469 15.57422 7.410156 13.71484 7.410156C 12.56641 7.410156 11.49609 7.96875 10.83984 8.898438C 10.57031 8.824219 10.28906 8.785156 10.00391 8.785156C 8.253906 8.785156 6.828125 10.19922 6.804688 11.94141C 6.070312 12.34375 5.601562 13.11719 5.601562 13.97266C 5.601562 15.24609 6.636719 16.28125 7.910156 16.28125L7.910156 16.28125L9.582031 16.28125C 9.660156 16.47266 9.855469 16.59375 10.07422 16.57422C 10.33984 16.55078 10.53125 16.3125 10.50781 16.04688C 10.5 15.96094 10.49609 15.87891 10.49609 15.80078C 10.49609 15.79688 10.49609 15.79688 10.49609 15.79688C 10.49609 15.76953 10.49609 15.74609 10.49609 15.72266C 10.49609 15.70313 10.49609 15.68359 10.5 15.66016C 10.5 15.63672 10.50391 15.61719 10.50391 15.59375C 10.50391 15.57031 10.50781 15.55078 10.50781 15.53125C 10.51172 15.50781 10.51563 15.48438 10.51563 15.46484C 10.51953 15.44141 10.52344 15.42188 10.52734 15.40234C 10.52734 15.37891 10.53125 15.35938 10.53516 15.33594C 10.53906 15.31641 10.54297 15.29297 10.54688 15.27344C 10.55078 15.25391 10.55859 15.23047 10.5625 15.21094C 10.56641 15.19141 10.57031 15.16797 10.57813 15.14844C 10.58203 15.12891 10.58984 15.10547 10.59375 15.08594C 10.60156 15.06641 10.60547 15.04688 10.61328 15.02734C 10.61719 15.00391 10.625 14.98438 10.63281 14.96484C 10.64063 14.94531 10.64453 14.92578 10.65234 14.90625C 10.66016 14.88672 10.66797 14.86719 10.67578 14.84766C 10.68359 14.82813 10.69141 14.80859 10.69922 14.78906C 10.70703 14.76953 10.71484 14.75 10.72266 14.73438C 10.73438 14.71484 10.74219 14.69141 10.75 14.67188C 10.76172 14.65625 10.76953 14.63672 10.77734 14.62109C 10.78906 14.60156 10.79688 14.58203 10.80859 14.5625C 10.82031 14.54297 10.82813 14.52734 10.83984 14.51172C 10.84766 14.49219 10.85938 14.47266 10.87109 14.45313C 10.88281 14.4375 10.89063 14.42188 10.90234 14.40625C 10.91406 14.38672 10.92578 14.36719 10.9375 14.34766C 10.94922 14.33203 10.96094 14.31641 10.97266 14.30078C 10.98438 14.28516 10.99609 14.26563 11.01172 14.24609C 11.02344 14.23047 11.03516 14.21875 11.04688 14.20313C 11.05859 14.18359 11.07422 14.16797 11.08984 14.14844C 11.10156 14.13672 11.11328 14.12109 11.125 14.10547C 11.14063 14.08984 11.15234 14.07422 11.16797 14.05469C 11.18359 14.04297 11.19531 14.02734 11.21094 14.01563C 11.22266 13.99609 11.23828 13.98047 11.25391 13.96484C 11.26953 13.95313 11.28125 13.94141 11.29688 13.92578C 11.3125 13.91016 11.32813 13.89453 11.34375 13.87891C 11.35938 13.86719 11.37109 13.85547 11.38672 13.84375C 11.40234 13.82813 11.42188 13.8125 11.4375 13.80078C 11.45313 13.78516 11.46875 13.77734 11.48438 13.76563C 11.5 13.75 11.51953 13.73438 11.53516 13.72266C 11.55469 13.71094 11.57031 13.69922 11.58594 13.6875C 11.60156 13.67578 11.62109 13.66016 11.63672 13.64844C 11.65625 13.64063 11.67188 13.62891 11.6875 13.61719C 11.70703 13.60547 11.72266 13.59375 11.74219 13.58203C 11.75781 13.57422 11.77734 13.5625 11.79297 13.55469C 11.8125 13.54297 11.83203 13.53125 11.85156 13.51953C 11.87109 13.51172 11.88672 13.5 11.90625 13.49219C 11.92578 13.48438 11.94531 13.47266 11.96484 13.46484C 11.98047 13.45313 12 13.44531 12.01953 13.4375C 12.03906 13.42969 12.05859 13.41797 12.07813 13.41016C 12.09766 13.40234 12.11719 13.39453 12.13281 13.39063C 12.15625 13.37891 12.17578 13.37109 12.19531 13.36328C 12.21484 13.35547 12.23828 13.35156 12.25781 13.34375C 12.27734 13.33594 12.29688 13.33203 12.31641 13.32422C 12.33594 13.31641 12.35938 13.3125 12.37891 13.30469C 12.39844 13.30078 12.41797 13.29297 12.4375 13.28906C 12.46094 13.28516 12.48438 13.27734 12.50391 13.27344C 12.52344 13.26953 12.54297 13.26563 12.5625 13.26172C 12.58594 13.25391 12.60938 13.25391 12.62891 13.25C 12.65234 13.24609 12.67188 13.24219 12.69141 13.23828C 12.71484 13.23438 12.73828 13.23047 12.76172 13.22656C 12.78125 13.22656 12.80078 13.22266 12.82031 13.22266C 12.84766 13.21875 12.875 13.21484 12.90625 13.21484C 12.92188 13.21484 12.9375 13.21094 12.94922 13.21094C 12.99609 13.20703 13.03906 13.20703 13.08203 13.20703C 13.12891 13.20703 13.17188 13.20703 13.21484 13.21094C 13.22266 13.21094 13.23047 13.21094 13.24219 13.21094C 13.27734 13.21484 13.3125 13.21875 13.34766 13.22266C 13.35156 13.22266 13.35938 13.22266 13.36719 13.22266C 13.40234 13.22656 13.44141 13.23047 13.47656 13.23828C 13.48047 13.23828 13.48438 13.23828 13.48828 13.23828C 13.52734 13.24609 13.56641 13.25391 13.60547 13.26172C 13.60547 13.26172 13.60938 13.26172 13.61328 13.26172C 13.65234 13.26953 13.69141 13.27734 13.73047 13.28906C 13.73047 13.28906 13.73438 13.28906 13.73438 13.28906C 13.77344 13.30078 13.8125 13.3125 13.85156 13.32422C 13.85547 13.32422 13.85547 13.32422 13.85547 13.32422C 14.90625 13.65625 15.67188 14.63672 15.67188 15.79688C 15.67188 16.0625 15.89063 16.28125 16.15625 16.28125C 16.42188 16.28125 16.64063 16.0625 16.64063 15.79688C 16.64063 14.52344 15.96875 13.40625 14.96094 12.77734C 15.37891 12.24609 15.97656 11.87109 16.63672 11.72266C 16.64453 11.71875 16.65234 11.71875 16.66016 11.71484C 16.71094 11.70703 16.75781 11.69531 16.80859 11.6875C 16.96484 11.66406 17.12109 11.64844 17.28125 11.64844C 18.91016 11.64844 20.23438 12.97656 20.23438 14.60547C 20.23438 15.03516 20.14453 15.45313 19.96094 15.84766C 19.90234 15.97656 19.90234 16.125 19.96094 16.25391C 20.02344 16.38281 20.13672 16.47656 20.27344 16.51563C 20.95703 16.70313 21.43359 17.33203 21.43359 18.03906C 21.43359 18.91406 20.72266 19.625 19.85156 19.625L19.85156 19.625L18.90625 19.625C 18.63672 19.625 18.42188 19.83984 18.42188 20.10938C 18.42188 20.375 18.63672 20.58984 18.90625 20.58984L18.90625 20.58984L19.85156 20.58984C 21.25781 20.58984 22.39844 19.44531 22.39844 18.03906C 22.39844 17.07813 21.85547 16.21094 21.02344 15.77734zM6.566406 13.97266C 6.566406 13.40234 6.925781 12.89453 7.460938 12.70313C 7.671875 12.62891 7.800781 12.42188 7.78125 12.20313C 7.773438 12.12891 7.769531 12.05469 7.769531 11.98438C 7.769531 10.75391 8.773438 9.753906 10.00391 9.753906C 10.30078 9.753906 10.58984 9.808594 10.85938 9.921875C 11.08984 10.01953 11.35156 9.925781 11.47266 9.707031C 11.92188 8.886719 12.78125 8.375 13.71484 8.375C 15.08594 8.375 16.21094 9.460938 16.26953 10.81641C 16.26953 10.81641 16.26563 10.81641 16.26563 10.82031C 15.375 11.05859 14.58984 11.60547 14.05469 12.375C 14.03125 12.36719 14.00391 12.36328 13.98047 12.35547C 13.97656 12.35547 13.97266 12.35156 13.96484 12.35156C 13.96094 12.35156 13.95703 12.34766 13.95313 12.34766C 13.94531 12.34766 13.94141 12.34766 13.9375 12.34375C 13.90625 12.33594 13.875 12.33203 13.84766 12.32422C 13.83594 12.32031 13.82813 12.32031 13.81641 12.31641C 13.8125 12.31641 13.80469 12.31641 13.80078 12.3125C 13.80078 12.3125 13.79688 12.3125 13.79688 12.3125C 13.77734 12.30859 13.75391 12.30469 13.73047 12.30078C 13.71875 12.29688 13.70703 12.29688 13.69922 12.29297C 13.67969 12.28906 13.66016 12.28906 13.63672 12.28516C 13.62891 12.28516 13.62109 12.28125 13.61328 12.28125C 13.60156 12.27734 13.58984 12.27734 13.57813 12.27344C 13.55078 12.27344 13.52734 12.26953 13.5 12.26563C 13.48438 12.26563 13.46875 12.26172 13.45313 12.26172C 13.45313 12.26172 13.44922 12.26172 13.44531 12.26172C 13.42578 12.25781 13.40234 12.25781 13.37891 12.25391C 13.36328 12.25391 13.34766 12.25 13.33203 12.25C 13.31641 12.25 13.30078 12.25 13.28516 12.24609C 13.27344 12.24609 13.26172 12.24609 13.24609 12.24609C 13.24219 12.24609 13.23828 12.24609 13.23438 12.24609C 13.22656 12.24609 13.21484 12.24219 13.20703 12.24219C 13.16797 12.24219 13.125 12.24219 13.08203 12.24219C 13.02344 12.24219 12.96484 12.24219 12.91016 12.24609C 12.89063 12.24609 12.87109 12.25 12.85156 12.25C 12.8125 12.25391 12.77344 12.25391 12.73438 12.25781C 12.71094 12.26172 12.69141 12.26563 12.66797 12.26563C 12.63281 12.26953 12.59766 12.27344 12.5625 12.28125C 12.53906 12.28516 12.51563 12.28906 12.49219 12.29297C 12.46094 12.29688 12.42578 12.30078 12.39453 12.30859C 12.37109 12.3125 12.34766 12.32031 12.32422 12.32422C 12.29297 12.33203 12.26172 12.33984 12.23047 12.34766C 12.20703 12.35156 12.17969 12.35938 12.15625 12.36328C 12.12891 12.37109 12.09766 12.38281 12.06641 12.39063C 12.04297 12.39844 12.01953 12.40625 11.99609 12.41406C 11.96484 12.42188 11.93359 12.43359 11.90625 12.44141C 11.88281 12.44922 11.85938 12.46094 11.83594 12.46875C 11.80859 12.48047 11.77734 12.49219 11.74609 12.50391C 11.72656 12.51172 11.70313 12.51953 11.68359 12.53125C 11.65234 12.54297 11.62109 12.55859 11.58984 12.57031C 11.57031 12.58203 11.55078 12.58984 11.53125 12.59766C 11.5 12.61328 11.46484 12.63281 11.43359 12.64844C 11.41797 12.65625 11.40234 12.66406 11.38281 12.67578C 11.33594 12.69922 11.28906 12.72656 11.24219 12.75781C 11.19531 12.78516 11.14844 12.81641 11.10156 12.84766C 11.08984 12.85547 11.07422 12.86719 11.05859 12.87891C 11.02734 12.89844 11 12.91797 10.96875 12.94141C 10.95313 12.95313 10.93359 12.96875 10.91797 12.98047C 10.89063 13 10.86328 13.01953 10.83984 13.04297C 10.82031 13.05469 10.80469 13.07031 10.78516 13.08594C 10.76172 13.10547 10.73828 13.12891 10.71484 13.14844C 10.69531 13.16406 10.67969 13.17969 10.66406 13.19531C 10.64063 13.21875 10.61719 13.23828 10.59375 13.26172C 10.57813 13.27734 10.5625 13.29688 10.54297 13.3125C 10.52344 13.33594 10.5 13.35547 10.48047 13.37891C 10.46484 13.39844 10.44922 13.41406 10.43359 13.43359C 10.41016 13.45703 10.39063 13.48047 10.37109 13.50391C 10.35547 13.51953 10.33984 13.53906 10.32422 13.55859C 10.30469 13.58203 10.28516 13.60938 10.26563 13.63281C 10.25 13.65234 10.23828 13.66797 10.22266 13.6875C 10.20313 13.71484 10.18359 13.74219 10.16797 13.76953C 10.15234 13.78516 10.14063 13.80469 10.12891 13.82031C 10.10938 13.85156 10.08984 13.88281 10.07031 13.91406C 10.05859 13.92969 10.05078 13.94531 10.03906 13.96094C 10.01172 14.00781 9.984375 14.05469 9.960938 14.10156C 9.960938 14.10156 9.957031 14.10156 9.957031 14.10547C 9.933594 14.15234 9.90625 14.20313 9.882812 14.25C 9.875 14.26563 9.867188 14.28516 9.859375 14.30078C 9.84375 14.33203 9.828125 14.36719 9.8125 14.40234C 9.804688 14.42188 9.796875 14.44141 9.789062 14.46094C 9.777344 14.49219 9.765625 14.52344 9.75 14.55859C 9.742188 14.57813 9.738281 14.60156 9.730469 14.62109C 9.71875 14.65234 9.707031 14.68359 9.695312 14.71484C 9.691406 14.73828 9.683594 14.76172 9.675781 14.78516C 9.667969 14.81641 9.65625 14.84766 9.648438 14.87891C 9.644531 14.90234 9.636719 14.92578 9.632812 14.94922C 9.625 14.98047 9.617188 15.01172 9.609375 15.04297C 9.605469 15.06641 9.597656 15.08984 9.59375 15.11328C 9.589844 15.14844 9.582031 15.17969 9.578125 15.21094C 9.574219 15.23438 9.570312 15.25781 9.566406 15.28516C 9.5625 15.29297 9.5625 15.30469 9.5625 15.31641L9.5625 15.31641L7.910156 15.31641C 7.167969 15.31641 6.566406 14.71094 6.566406 13.97266z" stroke="none" fill="#2D527C" fill-rule="nonzero" />
	</g>
</g>
</svg>