<svg id="Layer_1" data-name="Layer 1" xmlns="http://www.w3.org/2000/svg" viewBox="0 0 143.77 71.82"><defs><style>.cls-1{fill:#fff;}.cls-2{fill:#fff;}.cls-3{fill:#fff;}.cls-4{fill:#fff;}</style></defs><path class="cls-1" d="M22,54.64H17.86a1.26,1.26,0,0,1-1.12-1.83L34,19a1.26,1.26,0,0,1,2.24,0L53.47,52.81a1.26,1.26,0,0,1-1.12,1.83H48.18a1.25,1.25,0,0,1-1.1-.65L36.2,34.32a1.26,1.26,0,0,0-2.2,0L23.12,54a1.25,1.25,0,0,1-1.1.65" transform="translate(-16.6 -16.97)"/><path class="cls-1" d="M128.15,54.64H124a1.26,1.26,0,0,1-1.12-1.83L140.1,19a1.26,1.26,0,0,1,2.24,0l17.25,33.78a1.26,1.26,0,0,1-1.12,1.83H154.3a1.25,1.25,0,0,1-1.1-.65L142.32,34.32a1.26,1.26,0,0,0-2.2,0L129.24,54a1.25,1.25,0,0,1-1.09.65" transform="translate(-16.6 -16.97)"/><path class="cls-2" d="M145.45,52.89l-3-6a1,1,0,0,0-1.83,0l-3,6a1,1,0,0,0,.91,1.49h6.09a1,1,0,0,0,.92-1.49" transform="translate(-16.6 -16.97)"/><path class="cls-3" d="M39.06,52.89l-3-6a1,1,0,0,0-1.83,0l-3,6a1,1,0,0,0,.92,1.49h6.09a1,1,0,0,0,.91-1.49" transform="translate(-16.6 -16.97)"/><path class="cls-1" d="M64.27,18.87v27.3a1.9,1.9,0,0,0,1.91,1.9H81.74A1.91,1.91,0,0,1,83.64,50v2.75a1.9,1.9,0,0,1-1.9,1.91H59.07a1.9,1.9,0,0,1-1.9-1.91V18.87a1.9,1.9,0,0,1,1.9-1.9h3.29a1.9,1.9,0,0,1,1.91,1.9" transform="translate(-16.6 -16.97)"/><path class="cls-1" d="M118,27.89a7.66,7.66,0,0,1-4.9,7.27c4.41,1.34,6,6,6,8.39,0,8.4-6.3,11.09-14.11,11.09H90.09a2.93,2.93,0,0,1-2.93-2.93V20.06A3.09,3.09,0,0,1,90.25,17H105c7.43,0,13,3.33,13,10.92m-23.85,4.2H105c4.47,0,5.93-1.88,5.93-4,0-1.72-1.4-4.63-5.93-4.63H94.15Zm0,15.93H105c2.91,0,7.06-1,7.06-4.52,0-3.39-4.15-5.17-7.06-5.17H94.15Z" transform="translate(-16.6 -16.97)"/><path class="cls-4" d="M24.71,76a15.65,15.65,0,0,1,1.58.55,12.3,12.3,0,0,1,2.27,1.21,8.17,8.17,0,0,1,2,1.91,4.39,4.39,0,0,1,.87,2.73A6.81,6.81,0,0,1,31,84.91a5.75,5.75,0,0,1-3.46,3.36,8,8,0,0,1-2.84.47,11.61,11.61,0,0,1-4.48-.86,10.07,10.07,0,0,1-3.34-2.14l3.28-3.27a4.74,4.74,0,0,0,2.19,1.58,7.19,7.19,0,0,0,1.95.35,2.92,2.92,0,0,0,1.82-.47,1.45,1.45,0,0,0,.59-1.15,1.11,1.11,0,0,0-.39-.83,3.79,3.79,0,0,0-.93-.59A7.42,7.42,0,0,0,24.31,81c-.37-.09-.67-.17-.9-.25l-1.6-.55A11.16,11.16,0,0,1,19.52,79a7.82,7.82,0,0,1-2-1.9,4.42,4.42,0,0,1-.87-2.76,6.46,6.46,0,0,1,.58-2.86,5.66,5.66,0,0,1,1.52-2,6.22,6.22,0,0,1,2.17-1.16A8.57,8.57,0,0,1,23.41,68a10.57,10.57,0,0,1,3.41.48,11,11,0,0,1,2.31,1A8.05,8.05,0,0,1,30.87,71l-3.32,3.32a5.16,5.16,0,0,0-1.74-1.5,4.37,4.37,0,0,0-2-.47,3.76,3.76,0,0,0-1.64.39A1.32,1.32,0,0,0,21.35,74a1.06,1.06,0,0,0,.36.81,2.72,2.72,0,0,0,.87.56,8.56,8.56,0,0,0,1.08.37l1.05.28" transform="translate(-16.6 -16.97)"/><path class="cls-4" d="M153.62,76a15.65,15.65,0,0,1,1.58.55,12.3,12.3,0,0,1,2.27,1.21,8.35,8.35,0,0,1,2,1.91,4.39,4.39,0,0,1,.87,2.73,6.61,6.61,0,0,1-.46,2.52,5.8,5.8,0,0,1-1.32,2,6,6,0,0,1-2.13,1.34,8,8,0,0,1-2.84.47,11.7,11.7,0,0,1-4.49-.86,10.13,10.13,0,0,1-3.33-2.14l3.27-3.27a4.82,4.82,0,0,0,2.2,1.58,7.07,7.07,0,0,0,1.95.35,2.94,2.94,0,0,0,1.82-.47,1.45,1.45,0,0,0,.59-1.15,1.08,1.08,0,0,0-.4-.83,3.72,3.72,0,0,0-.92-.59,7.42,7.42,0,0,0-1.09-.38c-.37-.09-.67-.17-.91-.25l-1.6-.55A11.42,11.42,0,0,1,148.42,79a7.78,7.78,0,0,1-2-1.9,4.42,4.42,0,0,1-.87-2.76,6.6,6.6,0,0,1,.57-2.86,5.78,5.78,0,0,1,1.52-2,6.31,6.31,0,0,1,2.17-1.16,8.62,8.62,0,0,1,2.53-.38,10.64,10.64,0,0,1,3.42.48,11.5,11.5,0,0,1,2.31,1,8.56,8.56,0,0,1,1.74,1.5l-3.32,3.32a5.25,5.25,0,0,0-1.74-1.5,4.37,4.37,0,0,0-2-.47,3.72,3.72,0,0,0-1.64.39,1.32,1.32,0,0,0-.81,1.26,1.08,1.08,0,0,0,.35.81,3,3,0,0,0,.87.56,8.71,8.71,0,0,0,1.09.37l1.05.28" transform="translate(-16.6 -16.97)"/><path class="cls-4" d="M42.76,67.93a10.22,10.22,0,0,1,4.06.81,10.38,10.38,0,0,1,5.55,5.55A10.4,10.4,0,0,1,50.14,85.7a10.51,10.51,0,0,1-11.45,2.24,10.51,10.51,0,0,1-3.32-2.24,10.33,10.33,0,0,1-2.23-3.31,10.53,10.53,0,0,1,0-8.1A10.49,10.49,0,0,1,35.37,71a10.65,10.65,0,0,1,3.32-2.23,10.23,10.23,0,0,1,4.07-.81m0,4.74a5.67,5.67,0,0,0-4,9.68,5,5,0,0,0,1.84,1.24,5.77,5.77,0,0,0,2.19.42,5.7,5.7,0,0,0,2.17-.42,5.68,5.68,0,0,0,1.85-9.26,5.62,5.62,0,0,0-4-1.66" transform="translate(-16.6 -16.97)"/><rect class="cls-4" x="38.76" y="43.62" width="4.74" height="27.65"/><path class="cls-4" d="M81.18,68.49V88.23H76.44v-1.5A9.08,9.08,0,0,1,74,88.21a7.57,7.57,0,0,1-3,.57,8.2,8.2,0,0,1-3.51-.73,8,8,0,0,1-2.71-2,8.82,8.82,0,0,1-1.73-3,10.62,10.62,0,0,1-.62-3.64v-11H67.2v11a4.63,4.63,0,0,0,7.9,3.24,4.38,4.38,0,0,0,1.34-3.24v-11Z" transform="translate(-16.6 -16.97)"/><path class="cls-4" d="M94.18,88.23H89.83a6.37,6.37,0,0,1-4.58-1.91,6.87,6.87,0,0,1-1.38-2.08,6.31,6.31,0,0,1-.52-2.52V64.5l4.74-1.19v7.55h2.77L92,75.59h-4v6.13a1.76,1.76,0,0,0,1.74,1.77H93Z" transform="translate(-16.6 -16.97)"/><path class="cls-4" d="M95.75,60.59h4.74v4.74H95.75Zm0,7.9h4.74V88.23H95.75Z" transform="translate(-16.6 -16.97)"/><path class="cls-4" d="M113.09,67.93a10.27,10.27,0,0,1,4.07.81,10.38,10.38,0,0,1,5.55,5.55,10.53,10.53,0,0,1,0,8.1A10.5,10.5,0,0,1,109,87.94a10.56,10.56,0,0,1-5.55-5.55,10.53,10.53,0,0,1,0-8.1A10.47,10.47,0,0,1,109,68.74a10.27,10.27,0,0,1,4.07-.81m0,4.74a5.67,5.67,0,0,0-4,9.68,5.08,5.08,0,0,0,1.84,1.24,5.84,5.84,0,0,0,2.19.42,5.67,5.67,0,0,0,2.17-.42,5.42,5.42,0,0,0,1.86-1.24,5.67,5.67,0,0,0,0-8,5.64,5.64,0,0,0-4-1.66" transform="translate(-16.6 -16.97)"/><path class="cls-4" d="M135.64,67.93a8.43,8.43,0,0,1,3.52.73,8.05,8.05,0,0,1,2.7,2,9.21,9.21,0,0,1,1.74,3,10.56,10.56,0,0,1,.61,3.63V88.23h-4.74V77.29A4.33,4.33,0,0,0,138.09,74a4.43,4.43,0,0,0-3.24-1.34,4.58,4.58,0,0,0-4.62,4.62V88.23h-4.74V68.49h4.74V70a9.38,9.38,0,0,1,2.41-1.49,7.57,7.57,0,0,1,3-.57" transform="translate(-16.6 -16.97)"/></svg>