<svg width="14" height="14" viewBox="0 0 14 14" fill="none" xmlns="http://www.w3.org/2000/svg">
<path d="M11.7669 6.13335H11.1169V4.18335C11.1169 1.91376 9.26984 0.0666809 7.00026 0.0666809C4.73068 0.0666809 2.88359 1.91376 2.88359 4.18335V6.13335H2.23359C1.51589 6.13335 0.933594 6.71564 0.933594 7.43335V12.6333C0.933594 13.3511 1.51589 13.9333 2.23359 13.9333H11.7669C12.4846 13.9333 13.0669 13.3511 13.0669 12.6333V7.43335C13.0669 6.71564 12.4846 6.13335 11.7669 6.13335ZM8.08359 10.6833C8.08359 11.2819 7.5988 11.7667 7.00026 11.7667C6.40172 11.7667 5.91693 11.2819 5.91693 10.6833V9.38335C5.91693 8.78481 6.40172 8.30001 7.00026 8.30001C7.5988 8.30001 8.08359 8.78481 8.08359 9.38335V10.6833ZM8.95026 6.13335H5.05026V4.18335C5.05026 3.10814 5.92505 2.23335 7.00026 2.23335C8.07547 2.23335 8.95026 3.10814 8.95026 4.18335V6.13335Z" fill="#989CB2"/>
</svg>
