<svg width="14" height="14" viewBox="0 0 14 14" fill="none" xmlns="http://www.w3.org/2000/svg">
<path d="M6.99974 7.86668C9.15286 7.86668 10.8997 6.11981 10.8997 3.96668C10.8997 1.81356 9.15286 0.0666809 6.99974 0.0666809C4.84661 0.0666809 3.09974 1.81356 3.09974 3.96668C3.09974 6.11981 4.84661 7.86668 6.99974 7.86668ZM10.4664 8.73335H8.97411C8.37286 9.0096 7.70391 9.16668 6.99974 9.16668C6.29557 9.16668 5.62932 9.0096 5.02536 8.73335H3.53307C1.61828 8.73335 0.0664062 10.2852 0.0664062 12.2V12.6333C0.0664062 13.3511 0.648698 13.9333 1.36641 13.9333H12.6331C13.3508 13.9333 13.9331 13.3511 13.9331 12.6333V12.2C13.9331 10.2852 12.3812 8.73335 10.4664 8.73335Z" fill="#B84257"/>
</svg>
