<?xml version="1.0" standalone="no"?>
<!DOCTYPE svg PUBLIC "-//W3C//DTD SVG 1.0//EN" "http://www.w3.org/TR/2001/REC-SVG-20010904/DTD/svg10.dtd">
<svg xmlns="http://www.w3.org/2000/svg" xmlns:xlink="http://www.w3.org/1999/xlink" id="body_1" width="30" height="30">

<g transform="matrix(0.8108108 0 0 0.8108108 0 0)">
	<g transform="matrix(1.321429 0 0 1.321429 0 0)">
	</g>
    <path transform="matrix(1.321429 0 0 1.321429 0 0)"  d="M28 14C 28 21.73047 21.73047 28 14 28C 6.269531 28 0 21.73047 0 14C 0 6.269531 6.269531 0 14 0C 21.73047 0 28 6.269531 28 14z" stroke="none" fill="#FFFFFF" fill-rule="nonzero" />
	<g transform="matrix(1.321429 0 0 1.321429 0 0)">
	</g>
    <path transform="matrix(1.321429 0 0 1.321429 0 0)"  d="M14 14.97656C 11.875 14.97656 9.953125 15.9375 8.589844 17.47656C 9.09375 20.00781 11.32422 21.91016 14 21.91016C 16.67578 21.91016 18.90625 20.00781 19.41016 17.47656C 18.04688 15.9375 16.125 14.97656 14 14.97656zM16 19.37109C 15.39453 19.37109 14.90234 18.87891 14.90234 18.27344C 14.90234 17.66797 15.39453 17.17578 16 17.17578C 16.60938 17.17578 17.10156 17.66797 17.10156 18.27344C 17.10156 18.87891 16.60938 19.37109 16 19.37109z" stroke="none" fill="#CEE8FA" fill-rule="nonzero" />
	<g transform="matrix(1.321429 0 0 1.321429 0 0)">
	</g>
    <path transform="matrix(1.321429 0 0 1.321429 0 0)"  d="M20.00391 16.39844C 20.00391 14.76953 19.28906 12.76953 17.87891 10.45703C 17.73828 10.22656 17.4375 10.15625 17.20703 10.29688C 16.97656 10.4375 16.90234 10.73828 17.04297 10.96875C 18.35938 13.125 19.02734 14.94922 19.02734 16.39844C 19.02734 16.40234 19.02734 16.40234 19.02734 16.40625C 17.60938 15.16406 15.85938 14.48828 14 14.48828C 12.14063 14.48828 10.39063 15.16406 8.972656 16.40625C 8.972656 16.40234 8.972656 16.40234 8.972656 16.39844C 8.972656 12.9375 12.79688 8.226562 14 6.828125C 14.30469 7.179688 14.77344 7.738281 15.30469 8.433594C 15.46484 8.648438 15.77344 8.691406 15.98828 8.527344C 16.20313 8.363281 16.24219 8.058594 16.08203 7.84375C 15.13281 6.597656 14.39063 5.792969 14.35938 5.757812C 14.26563 5.65625 14.13672 5.601562 14 5.601562C 13.86328 5.601562 13.73438 5.65625 13.64063 5.757812C 13.41016 6.007812 7.996094 11.93359 7.996094 16.39844C 7.996094 16.79297 8.035156 17.1875 8.113281 17.57422C 8.667969 20.37109 11.14453 22.39844 14 22.39844C 14.26563 22.39844 14.53125 22.38281 14.79297 22.34766C 14.87891 22.33594 14.96484 22.32422 15.05078 22.30859C 15.17969 22.28516 15.30469 22.25781 15.42969 22.22656C 17.64844 21.67969 19.42578 19.89063 19.88672 17.57422C 19.96484 17.1875 20.00391 16.79297 20.00391 16.39844zM13.78125 21.41797C 13.75391 21.41797 13.73047 21.41406 13.70703 21.41406C 13.66016 21.41016 13.60938 21.41016 13.5625 21.40234C 13.53516 21.40234 13.50391 21.39844 13.47656 21.39453C 13.43359 21.39063 13.39063 21.38672 13.34766 21.37891C 13.31641 21.375 13.28516 21.37109 13.25391 21.36719C 13.21484 21.35938 13.17578 21.35547 13.13672 21.34766C 13.10156 21.34375 13.07031 21.33594 13.03906 21.32813C 13.00391 21.32031 12.96484 21.31641 12.92578 21.30469C 12.89453 21.30078 12.86328 21.29297 12.82813 21.28516C 12.79297 21.27344 12.75391 21.26563 12.71875 21.25781C 12.6875 21.24609 12.65625 21.23828 12.62109 21.23047C 12.58594 21.21875 12.55078 21.20703 12.51563 21.19922C 12.48047 21.1875 12.44922 21.17578 12.41797 21.16797C 12.38281 21.15625 12.34766 21.14453 12.3125 21.12891C 12.28125 21.12109 12.25 21.10547 12.21875 21.09375C 12.18359 21.08203 12.15234 21.07031 12.11719 21.05469C 12.08594 21.04297 12.05469 21.03125 12.02344 21.01563C 11.98828 21 11.95703 20.98828 11.92188 20.97266C 11.89453 20.95703 11.86328 20.94531 11.83203 20.92969C 11.80078 20.91406 11.76563 20.89844 11.73438 20.88281C 11.70313 20.86719 11.67578 20.85156 11.64453 20.83594C 11.61328 20.81641 11.58203 20.80078 11.55078 20.78125C 11.51953 20.76563 11.49219 20.75 11.46094 20.73047C 11.42969 20.71484 11.39844 20.69531 11.37109 20.67578C 11.33984 20.66016 11.3125 20.64063 11.28125 20.62109C 11.25391 20.60156 11.22266 20.58203 11.19531 20.5625C 11.16406 20.54297 11.13672 20.52344 11.10938 20.50391C 11.08203 20.48438 11.05078 20.46484 11.02344 20.44531C 10.99609 20.42188 10.96875 20.40234 10.94141 20.38281C 10.91406 20.35938 10.88672 20.33984 10.85938 20.31641C 10.83203 20.29688 10.80469 20.27344 10.77734 20.25C 10.75 20.23047 10.72266 20.20703 10.69922 20.18359C 10.67188 20.16016 10.64453 20.13672 10.62109 20.11328C 10.59375 20.08984 10.57031 20.06641 10.54297 20.04297C 10.51953 20.01953 10.49219 19.99609 10.46875 19.97266C 10.44531 19.94531 10.41797 19.92188 10.39453 19.89844C 10.37109 19.87109 10.34766 19.84766 10.32422 19.82031C 10.30078 19.79688 10.27734 19.76953 10.25391 19.74219C 10.23047 19.71875 10.20703 19.69141 10.18359 19.66406C 10.16016 19.64063 10.13672 19.61328 10.11719 19.58594C 10.09375 19.55859 10.07031 19.53125 10.05078 19.50391C 10.02734 19.47656 10.00781 19.44922 9.984375 19.42188C 9.964844 19.39453 9.945312 19.36719 9.921875 19.33594C 9.902344 19.30859 9.882812 19.28125 9.863281 19.25C 9.84375 19.22266 9.824219 19.19531 9.804688 19.16406C 9.785156 19.13672 9.765625 19.10547 9.746094 19.07422C 9.726562 19.04688 9.710938 19.01563 9.691406 18.98828C 9.671875 18.95703 9.65625 18.92578 9.636719 18.89453C 9.621094 18.86328 9.601562 18.83594 9.585938 18.80469C 9.566406 18.77344 9.550781 18.73828 9.535156 18.70703C 9.519531 18.67578 9.503906 18.64453 9.488281 18.61719C 9.472656 18.58203 9.457031 18.54688 9.4375 18.51172C 9.425781 18.48047 9.410156 18.45313 9.398438 18.42188C 9.378906 18.38281 9.363281 18.33984 9.347656 18.30078C 9.335938 18.27344 9.324219 18.25 9.316406 18.22656C 9.289062 18.16016 9.265625 18.09375 9.242188 18.02734C 9.234375 18.00391 9.226562 17.97656 9.21875 17.95313C 9.207031 17.91016 9.191406 17.86328 9.175781 17.82031C 9.167969 17.79297 9.160156 17.76172 9.152344 17.73438C 9.144531 17.69531 9.132812 17.65625 9.121094 17.62109C 10.4375 16.22656 12.16016 15.46484 14 15.46484C 15.83984 15.46484 17.5625 16.22656 18.875 17.62109C 18.86719 17.66406 18.85547 17.70703 18.84375 17.74609C 18.83594 17.77344 18.82813 17.79688 18.82422 17.82031C 18.80859 17.875 18.78906 17.92578 18.77344 17.98047C 18.76563 17.99609 18.76172 18.01172 18.75781 18.02344C 18.73438 18.09375 18.71094 18.16016 18.68359 18.22656C 18.67969 18.23828 18.67188 18.25 18.66797 18.26172C 18.64844 18.31641 18.625 18.37109 18.60156 18.42578C 18.58984 18.44922 18.57813 18.47266 18.56641 18.49609C 18.55078 18.53516 18.53125 18.57813 18.51172 18.61719C 18.49609 18.64453 18.48438 18.66797 18.46875 18.69531C 18.45313 18.73047 18.43359 18.76953 18.41406 18.80469C 18.39844 18.83203 18.38281 18.85938 18.36719 18.88672C 18.34766 18.92188 18.32813 18.95313 18.30859 18.98828C 18.29297 19.01563 18.27344 19.04297 18.25781 19.07031C 18.23438 19.10156 18.21484 19.13281 18.19531 19.16406C 18.17578 19.19141 18.16016 19.21875 18.14063 19.24609C 18.11719 19.27734 18.09766 19.30859 18.07422 19.33984C 18.05469 19.36328 18.03516 19.39063 18.01563 19.41797C 17.99219 19.44531 17.97266 19.47656 17.94922 19.50391C 17.92969 19.53125 17.90625 19.55859 17.88672 19.58203C 17.86328 19.60938 17.83984 19.64063 17.81641 19.66797C 17.79297 19.69141 17.76953 19.71875 17.75 19.74219C 17.72656 19.76953 17.69922 19.79688 17.67578 19.82422C 17.65234 19.84766 17.62891 19.87109 17.60547 19.89453C 17.58203 19.92188 17.55469 19.94531 17.53125 19.97266C 17.50781 19.99609 17.48047 20.01953 17.45703 20.04297C 17.42969 20.06641 17.40625 20.08984 17.37891 20.11719C 17.35547 20.13672 17.32813 20.16016 17.30469 20.18359C 17.27734 20.20703 17.25 20.23047 17.21875 20.25391C 17.19531 20.27344 17.16797 20.29297 17.14453 20.31641C 17.11328 20.33984 17.08594 20.35938 17.05859 20.38281C 17.03125 20.40234 17.00391 20.42188 16.97656 20.44141C 16.94922 20.46484 16.91797 20.48438 16.89063 20.50781C 16.86328 20.52734 16.83594 20.54297 16.80859 20.5625C 16.77734 20.58203 16.74609 20.60156 16.71484 20.62109C 16.6875 20.64063 16.66016 20.66016 16.63281 20.67578C 16.60156 20.69531 16.57031 20.71484 16.53906 20.73047C 16.50781 20.75 16.48047 20.76563 16.44922 20.78125C 16.41797 20.80078 16.38672 20.81641 16.35547 20.83594C 16.32422 20.85156 16.29688 20.86719 16.26563 20.88281C 16.23438 20.89844 16.19922 20.91406 16.16797 20.92969C 16.13672 20.94531 16.10547 20.95703 16.07813 20.97266C 16.04297 20.98828 16.00781 21 15.97656 21.01563C 15.94531 21.03125 15.91406 21.04297 15.88281 21.05469C 15.84766 21.07031 15.8125 21.08203 15.78125 21.09375C 15.75 21.10547 15.71875 21.11719 15.6875 21.12891C 15.65234 21.14453 15.61719 21.15625 15.57813 21.16797C 15.54688 21.17578 15.51563 21.1875 15.48438 21.19531C 15.44922 21.20703 15.41406 21.21875 15.375 21.23047C 15.34375 21.23828 15.3125 21.24609 15.28125 21.25781C 15.24609 21.26563 15.20703 21.27344 15.16797 21.28516C 15.13672 21.29297 15.10547 21.30078 15.07422 21.30469C 15.03516 21.31641 14.99609 21.32031 14.95703 21.32813C 14.92578 21.33594 14.89453 21.34375 14.86328 21.34766C 14.82422 21.35547 14.78516 21.35938 14.74219 21.36719C 14.71484 21.37109 14.68359 21.375 14.65234 21.37891C 14.60938 21.38672 14.56641 21.39063 14.52344 21.39453C 14.49219 21.39844 14.46484 21.40234 14.4375 21.40234C 14.39063 21.40625 14.33984 21.41016 14.29297 21.41406C 14.26953 21.41406 14.24219 21.41797 14.21875 21.41797C 14.14453 21.42188 14.07422 21.42188 14 21.42188C 13.92578 21.42188 13.85156 21.42188 13.78125 21.41797z" stroke="none" fill="#2D527C" fill-rule="nonzero" />
	<g transform="matrix(1.321429 0 0 1.321429 0 0)">
	</g>
    <path transform="matrix(1.321429 0 0 1.321429 0 0)"  d="M16 19.85938C 16.875 19.85938 17.58984 19.14844 17.58984 18.27344C 17.58984 17.39844 16.875 16.6875 16 16.6875C 15.125 16.6875 14.41406 17.39844 14.41406 18.27344C 14.41406 19.14844 15.125 19.85938 16 19.85938zM16 17.66406C 16.33984 17.66406 16.61328 17.9375 16.61328 18.27344C 16.61328 18.60938 16.33984 18.88281 16 18.88281C 15.66406 18.88281 15.39063 18.60938 15.39063 18.27344C 15.39063 17.9375 15.66406 17.66406 16 17.66406z" stroke="none" fill="#2D527C" fill-rule="nonzero" />
</g>
</svg>