<?xml version="1.0" standalone="no"?>
<!DOCTYPE svg PUBLIC "-//W3C//DTD SVG 1.0//EN" "http://www.w3.org/TR/2001/REC-SVG-20010904/DTD/svg10.dtd">
<svg xmlns="http://www.w3.org/2000/svg" xmlns:xlink="http://www.w3.org/1999/xlink" id="body_1" width="30" height="30">

<g transform="matrix(1.5 0 0 1.5 0 0)">
	<g transform="matrix(1 0 0 1 0 0)">
	</g>
    <path transform="matrix(1 0 0 1 0 0)"  d="M20 10C 20 7.238576 19.02369 4.881554 17.07107 2.928932C 15.11845 0.9763107 12.76143 0 10 0C 7.238576 0 4.881554 0.9763107 2.928932 2.928932C 0.9763107 4.881554 0 7.238576 0 10C 0 12.76143 0.9763107 15.11845 2.928932 17.07107C 4.881554 19.02369 7.238576 20 10 20C 12.76143 20 15.11845 19.02369 17.07107 17.07107C 19.02369 15.11845 20 12.76143 20 10" stroke="none" fill="#FFFFFF" fill-rule="nonzero" />
	<g transform="matrix(1 0 0 1 0 0)">
	</g>
    <path transform="matrix(1 0 0 1 0 0)"  d="M10 13.4329C 9.12046 13.4329 8.24116 13.0982 7.5715 12.4285C 6.90288 11.7599 6.54592 10.8709 6.56639 9.92521C 6.58565 9.03627 6.9426 8.20032 7.5715 7.57143C 8.91058 6.23235 11.0894 6.23232 12.4286 7.57143C 12.5546 7.69745 12.5546 7.90178 12.4286 8.02785C 12.3025 8.15387 12.0982 8.15387 11.9722 8.02785C 10.8847 6.94039 9.11528 6.94039 8.02783 8.02785C 7.5171 8.53855 7.22721 9.21735 7.2116 9.93918C 7.19498 10.7072 7.48483 11.4291 8.02783 11.9721C 9.11528 13.0596 10.8847 13.0596 11.9722 11.9721C 12.499 11.4453 12.7891 10.7449 12.789 9.99995C 12.789 9.82171 12.9335 9.67724 13.1118 9.67724C 13.29 9.67724 13.4345 9.82171 13.4345 9.99995C 13.4345 10.9174 13.0773 11.7799 12.4285 12.4286C 11.7591 13.098 10.8794 13.4329 10 13.4329z" stroke="none" fill="#2D527C" fill-rule="nonzero" />
	<g transform="matrix(1 0 0 1 0 0)">
	</g>
    <path transform="matrix(1 0 0 1 0 0)"  d="M9.99992 11.9694C 11.0877 11.9694 11.9695 11.0876 11.9695 9.99989C 11.9695 8.91215 11.0877 8.03036 9.99992 8.03036C 8.91218 8.03036 8.0304 8.91215 8.0304 9.99989C 8.0304 11.0876 8.91218 11.9694 9.99992 11.9694z" stroke="none" fill="#CEE8FA" fill-rule="nonzero" />
	<g transform="matrix(1 0 0 1 0 0)">
	</g>
    <path transform="matrix(1 0 0 1 0 0)"  d="M10 12.2921C 9.38777 12.2921 8.81219 12.0537 8.37923 11.6208C 7.94632 11.1879 7.70789 10.6123 7.70789 10C 7.70789 9.38774 7.94632 8.81216 8.37925 8.3792C 8.81217 7.94628 9.38777 7.70786 10 7.70786C 10.6123 7.70786 11.1879 7.94628 11.6208 8.37922C 12.0537 8.81214 12.2922 9.38774 12.2922 10C 12.2922 10.6123 12.0537 11.1878 11.6208 11.6208C 11.1879 12.0537 10.6123 12.2921 10 12.2921zM10 8.35328C 9.5602 8.35328 9.14667 8.52458 8.83565 8.8356C 8.52461 9.14664 8.35331 9.56017 8.35331 10C 8.35331 10.4398 8.52461 10.8534 8.83563 11.1644C 9.14667 11.4754 9.56017 11.6467 10 11.6467C 10.4398 11.6467 10.8534 11.4754 11.1644 11.1644C 11.4754 10.8534 11.6467 10.4398 11.6467 10C 11.6467 9.56017 11.4754 9.14664 11.1644 8.83562C 10.8534 8.52458 10.4399 8.35328 10 8.35328z" stroke="none" fill="#2D527C" fill-rule="nonzero" />
	<g transform="matrix(1 0 0 1 0 0)">
	</g>
    <path transform="matrix(1 0 0 1 0 0)"  d="M9.99995 6.02263C 9.82171 6.02263 9.67725 5.87816 9.67725 5.69992L9.67725 5.69992L9.67725 4.32271C 9.67725 4.14447 9.82171 4 9.99995 4C 10.1782 4 10.3227 4.14447 10.3227 4.32271L10.3227 4.32271L10.3227 5.69992C 10.3227 5.87816 10.1782 6.02263 9.99995 6.02263z" stroke="none" fill="#2D527C" fill-rule="nonzero" />
	<g transform="matrix(1 0 0 1 0 0)">
	</g>
    <path transform="matrix(1 0 0 1 0 0)"  d="M9.99995 16C 9.82171 16 9.67725 15.8555 9.67725 15.6773L9.67725 15.6773L9.67725 14.3001C 9.67725 14.1218 9.82171 13.9774 9.99995 13.9774C 10.1782 13.9774 10.3227 14.1218 10.3227 14.3001L10.3227 14.3001L10.3227 15.6773C 10.3227 15.8555 10.1782 16 9.99995 16z" stroke="none" fill="#2D527C" fill-rule="nonzero" />
	<g transform="matrix(1 0 0 1 0 0)">
	</g>
    <path transform="matrix(1 0 0 1 0 0)"  d="M13.0406 7.28214C 12.958 7.28214 12.8754 7.25062 12.8124 7.18762C 12.6864 7.06159 12.6864 6.85727 12.8124 6.73119L12.8124 6.73119L13.1064 6.43719C 13.2324 6.31122 13.4368 6.31122 13.5628 6.43719C 13.6889 6.56322 13.6889 6.76755 13.5628 6.89362L13.5628 6.89362L13.2688 7.18762C 13.2058 7.25059 13.1232 7.28214 13.0406 7.28214z" stroke="none" fill="#2D527C" fill-rule="nonzero" />
	<g transform="matrix(1 0 0 1 0 0)">
	</g>
    <path transform="matrix(1 0 0 1 0 0)"  d="M6.66536 13.6573C 6.58276 13.6573 6.50017 13.6258 6.43717 13.5628C 6.31115 13.4367 6.31115 13.2324 6.43717 13.1063L6.43717 13.1063L6.73117 12.8123C 6.85719 12.6864 7.06152 12.6864 7.18759 12.8123C 7.31362 12.9384 7.31362 13.1427 7.18759 13.2688L7.18759 13.2688L6.89359 13.5628C 6.83057 13.6258 6.74795 13.6573 6.66536 13.6573z" stroke="none" fill="#2D527C" fill-rule="nonzero" />
	<g transform="matrix(1 0 0 1 0 0)">
	</g>
    <path transform="matrix(1 0 0 1 0 0)"  d="M6.95948 7.28214C 6.87689 7.28214 6.79429 7.25062 6.73129 7.18762L6.73129 7.18762L6.43729 6.89362C 6.31127 6.76759 6.31127 6.56327 6.43729 6.43719C 6.56332 6.31122 6.76764 6.31122 6.89372 6.43719L6.89372 6.43719L7.18772 6.73119C 7.31374 6.85722 7.31374 7.06155 7.18772 7.18762C 7.12465 7.25059 7.04205 7.28214 6.95948 7.28214z" stroke="none" fill="#2D527C" fill-rule="nonzero" />
	<g transform="matrix(1 0 0 1 0 0)">
	</g>
    <path transform="matrix(1 0 0 1 0 0)"  d="M13.3346 13.6573C 13.252 13.6573 13.1694 13.6258 13.1064 13.5628L13.1064 13.5628L12.8124 13.2688C 12.6864 13.1427 12.6864 12.9384 12.8124 12.8123C 12.9384 12.6864 13.1428 12.6864 13.2688 12.8123L13.2688 12.8123L13.5628 13.1063C 13.6889 13.2324 13.6889 13.4367 13.5628 13.5628C 13.4998 13.6258 13.4172 13.6573 13.3346 13.6573z" stroke="none" fill="#2D527C" fill-rule="nonzero" />
	<g transform="matrix(1 0 0 1 0 0)">
	</g>
    <path transform="matrix(1 0 0 1 0 0)"  d="M15.6773 10.3227L14.3001 10.3227C 14.1219 10.3227 13.9774 10.1782 13.9774 10C 13.9774 9.82176 14.1219 9.67729 14.3001 9.67729L14.3001 9.67729L15.6773 9.67729C 15.8556 9.67729 16.0001 9.82176 16.0001 10C 16.0001 10.1782 15.8556 10.3227 15.6773 10.3227z" stroke="none" fill="#2D527C" fill-rule="nonzero" />
	<g transform="matrix(1 0 0 1 0 0)">
	</g>
    <path transform="matrix(1 0 0 1 0 0)"  d="M5.69992 10.3227L4.32271 10.3227C 4.14447 10.3227 4 10.1782 4 10C 4 9.82176 4.14447 9.67729 4.32271 9.67729L4.32271 9.67729L5.69992 9.67729C 5.87816 9.67729 6.02263 9.82176 6.02263 10C 6.02263 10.1782 5.87816 10.3227 5.69992 10.3227z" stroke="none" fill="#2D527C" fill-rule="nonzero" />
</g>
</svg>