<?xml version="1.0" standalone="no"?>
<!DOCTYPE svg PUBLIC "-//W3C//DTD SVG 1.0//EN" "http://www.w3.org/TR/2001/REC-SVG-20010904/DTD/svg10.dtd">
<svg xmlns="http://www.w3.org/2000/svg" xmlns:xlink="http://www.w3.org/1999/xlink" id="body_1" width="30" height="30">

<g transform="matrix(0.8108108 0 0 0.8108108 0 0)">
	<g transform="matrix(1.321429 0 0 1.321429 0 0)">
	</g>
    <path transform="matrix(1.321429 0 0 1.321429 0 0)"  d="M28 14C 28 21.73047 21.73047 28 14 28C 6.269531 28 0 21.73047 0 14C 0 6.269531 6.269531 0 14 0C 21.73047 0 28 6.269531 28 14z" stroke="none" fill="#FFFFFF" fill-rule="nonzero" />
	<g transform="matrix(1.321429 0 0 1.321429 0 0)">
	</g>
    <path transform="matrix(1.321429 0 0 1.321429 0 0)"  d="M21 14C 21 17.86719 17.86719 21 14 21C 10.13281 21 7 17.86719 7 14C 7 10.13672 10.13281 7 14 7C 17.86719 7 21 10.13672 21 14zM14 15.41016C 13.28125 15.41016 12.70313 15.99219 12.70313 16.71094C 12.70313 17.42578 13.28125 18.00781 14 18.00781C 14.71875 18.00781 15.29688 17.42578 15.29688 16.71094C 15.29688 15.99219 14.71875 15.41016 14 15.41016zM12.76563 10.74609L12.97656 14.58203C 12.98828 14.76172 13.13672 14.90234 13.31641 14.90234L13.31641 14.90234L14.68359 14.90234C 14.86328 14.90234 15.01172 14.76172 15.02344 14.58203L15.02344 14.58203L15.23438 10.74609C 15.24219 10.55078 15.08984 10.38672 14.89453 10.38672L14.89453 10.38672L13.10547 10.38672C 12.91016 10.38672 12.75781 10.55078 12.76563 10.74609z" stroke="none" fill="#F2994A" fill-rule="nonzero" />
</g>
</svg>